<mxfile host="app.diagrams.net" agent="Mozilla/5.0 (Windows NT 10.0; Win64; x64) AppleWebKit/537.36 (KHTML, like Gecko) Chrome/133.0.0.0 Safari/537.36 OPR/118.0.0.0" version="27.0.3">
  <diagram name="Page-1" id="03XX2MPO4sETvZb602Uh">
    <mxGraphModel dx="2058" dy="1113" grid="1" gridSize="10" guides="1" tooltips="1" connect="1" arrows="1" fold="1" page="1" pageScale="1" pageWidth="850" pageHeight="1100" math="0" shadow="0">
      <root>
        <mxCell id="0" />
        <mxCell id="1" parent="0" />
        <mxCell id="4Z4Qs0QXwUxuNKvJey66-1" value="" style="ellipse;html=1;shape=startState;fillColor=#000000;strokeColor=#ff0000;" vertex="1" parent="1">
          <mxGeometry x="410" y="100" width="30" height="30" as="geometry" />
        </mxCell>
        <mxCell id="4Z4Qs0QXwUxuNKvJey66-2" value="" style="edgeStyle=orthogonalEdgeStyle;html=1;verticalAlign=bottom;endArrow=classic;endSize=8;strokeColor=#000000;rounded=0;entryX=0.5;entryY=0;entryDx=0;entryDy=0;endFill=1;" edge="1" source="4Z4Qs0QXwUxuNKvJey66-1" parent="1" target="4Z4Qs0QXwUxuNKvJey66-4">
          <mxGeometry relative="1" as="geometry">
            <mxPoint x="425" y="190" as="targetPoint" />
          </mxGeometry>
        </mxCell>
        <mxCell id="4Z4Qs0QXwUxuNKvJey66-3" value="" style="ellipse;html=1;shape=endState;fillColor=#000000;strokeColor=#ff0000;" vertex="1" parent="1">
          <mxGeometry x="410" y="830" width="30" height="30" as="geometry" />
        </mxCell>
        <mxCell id="4Z4Qs0QXwUxuNKvJey66-27" style="rounded=0;orthogonalLoop=1;jettySize=auto;html=1;exitX=0.5;exitY=1;exitDx=0;exitDy=0;entryX=0.5;entryY=0;entryDx=0;entryDy=0;" edge="1" parent="1" source="4Z4Qs0QXwUxuNKvJey66-4" target="4Z4Qs0QXwUxuNKvJey66-7">
          <mxGeometry relative="1" as="geometry" />
        </mxCell>
        <mxCell id="4Z4Qs0QXwUxuNKvJey66-4" value="&lt;font style=&quot;font-size: 10px;&quot;&gt;1.1&lt;/font&gt;" style="ellipse;whiteSpace=wrap;html=1;aspect=fixed;" vertex="1" parent="1">
          <mxGeometry x="415" y="160" width="20" height="20" as="geometry" />
        </mxCell>
        <mxCell id="4Z4Qs0QXwUxuNKvJey66-31" style="edgeStyle=orthogonalEdgeStyle;rounded=0;orthogonalLoop=1;jettySize=auto;html=1;exitX=1;exitY=0.5;exitDx=0;exitDy=0;entryX=0;entryY=0.5;entryDx=0;entryDy=0;" edge="1" parent="1" source="4Z4Qs0QXwUxuNKvJey66-7" target="4Z4Qs0QXwUxuNKvJey66-26">
          <mxGeometry relative="1" as="geometry" />
        </mxCell>
        <mxCell id="4Z4Qs0QXwUxuNKvJey66-7" value="&lt;font style=&quot;font-size: 10px;&quot;&gt;1.2&lt;/font&gt;" style="ellipse;whiteSpace=wrap;html=1;aspect=fixed;" vertex="1" parent="1">
          <mxGeometry x="415" y="210" width="20" height="20" as="geometry" />
        </mxCell>
        <mxCell id="4Z4Qs0QXwUxuNKvJey66-32" style="edgeStyle=orthogonalEdgeStyle;rounded=0;orthogonalLoop=1;jettySize=auto;html=1;exitX=0.5;exitY=1;exitDx=0;exitDy=0;entryX=0.5;entryY=0;entryDx=0;entryDy=0;" edge="1" parent="1" source="4Z4Qs0QXwUxuNKvJey66-8" target="4Z4Qs0QXwUxuNKvJey66-9">
          <mxGeometry relative="1" as="geometry" />
        </mxCell>
        <mxCell id="4Z4Qs0QXwUxuNKvJey66-36" value="" style="edgeStyle=orthogonalEdgeStyle;rounded=0;orthogonalLoop=1;jettySize=auto;html=1;" edge="1" parent="1" source="4Z4Qs0QXwUxuNKvJey66-8" target="4Z4Qs0QXwUxuNKvJey66-23">
          <mxGeometry relative="1" as="geometry" />
        </mxCell>
        <mxCell id="4Z4Qs0QXwUxuNKvJey66-8" value="&lt;font style=&quot;font-size: 10px;&quot;&gt;2.1&lt;/font&gt;" style="ellipse;whiteSpace=wrap;html=1;aspect=fixed;" vertex="1" parent="1">
          <mxGeometry x="415" y="280" width="20" height="20" as="geometry" />
        </mxCell>
        <mxCell id="4Z4Qs0QXwUxuNKvJey66-33" style="edgeStyle=orthogonalEdgeStyle;rounded=0;orthogonalLoop=1;jettySize=auto;html=1;exitX=0.5;exitY=1;exitDx=0;exitDy=0;entryX=0.5;entryY=0;entryDx=0;entryDy=0;" edge="1" parent="1" source="4Z4Qs0QXwUxuNKvJey66-9" target="4Z4Qs0QXwUxuNKvJey66-10">
          <mxGeometry relative="1" as="geometry" />
        </mxCell>
        <mxCell id="4Z4Qs0QXwUxuNKvJey66-37" style="rounded=0;orthogonalLoop=1;jettySize=auto;html=1;entryX=0.5;entryY=1;entryDx=0;entryDy=0;" edge="1" parent="1" source="4Z4Qs0QXwUxuNKvJey66-9" target="4Z4Qs0QXwUxuNKvJey66-23">
          <mxGeometry relative="1" as="geometry" />
        </mxCell>
        <mxCell id="4Z4Qs0QXwUxuNKvJey66-9" value="&lt;font style=&quot;font-size: 10px;&quot;&gt;2.2.&lt;/font&gt;" style="ellipse;whiteSpace=wrap;html=1;aspect=fixed;" vertex="1" parent="1">
          <mxGeometry x="415" y="340" width="20" height="20" as="geometry" />
        </mxCell>
        <mxCell id="4Z4Qs0QXwUxuNKvJey66-38" value="" style="edgeStyle=orthogonalEdgeStyle;rounded=0;orthogonalLoop=1;jettySize=auto;html=1;" edge="1" parent="1" source="4Z4Qs0QXwUxuNKvJey66-10" target="4Z4Qs0QXwUxuNKvJey66-12">
          <mxGeometry relative="1" as="geometry" />
        </mxCell>
        <mxCell id="4Z4Qs0QXwUxuNKvJey66-40" value="" style="edgeStyle=orthogonalEdgeStyle;rounded=0;orthogonalLoop=1;jettySize=auto;html=1;" edge="1" parent="1" source="4Z4Qs0QXwUxuNKvJey66-10" target="4Z4Qs0QXwUxuNKvJey66-11">
          <mxGeometry relative="1" as="geometry" />
        </mxCell>
        <mxCell id="4Z4Qs0QXwUxuNKvJey66-10" value="&lt;font style=&quot;font-size: 10px;&quot;&gt;3.1&lt;/font&gt;" style="ellipse;whiteSpace=wrap;html=1;aspect=fixed;" vertex="1" parent="1">
          <mxGeometry x="415" y="420" width="20" height="20" as="geometry" />
        </mxCell>
        <mxCell id="4Z4Qs0QXwUxuNKvJey66-41" value="" style="edgeStyle=orthogonalEdgeStyle;rounded=0;orthogonalLoop=1;jettySize=auto;html=1;" edge="1" parent="1" source="4Z4Qs0QXwUxuNKvJey66-11" target="4Z4Qs0QXwUxuNKvJey66-19">
          <mxGeometry relative="1" as="geometry" />
        </mxCell>
        <mxCell id="4Z4Qs0QXwUxuNKvJey66-43" style="edgeStyle=orthogonalEdgeStyle;rounded=0;orthogonalLoop=1;jettySize=auto;html=1;entryX=0;entryY=0.5;entryDx=0;entryDy=0;" edge="1" parent="1" source="4Z4Qs0QXwUxuNKvJey66-11" target="4Z4Qs0QXwUxuNKvJey66-23">
          <mxGeometry relative="1" as="geometry">
            <Array as="points">
              <mxPoint x="290" y="290" />
            </Array>
          </mxGeometry>
        </mxCell>
        <mxCell id="4Z4Qs0QXwUxuNKvJey66-11" value="&lt;font style=&quot;font-size: 10px;&quot;&gt;3.2&lt;/font&gt;" style="ellipse;whiteSpace=wrap;html=1;aspect=fixed;" vertex="1" parent="1">
          <mxGeometry x="280" y="420" width="20" height="20" as="geometry" />
        </mxCell>
        <mxCell id="4Z4Qs0QXwUxuNKvJey66-44" value="" style="edgeStyle=orthogonalEdgeStyle;rounded=0;orthogonalLoop=1;jettySize=auto;html=1;" edge="1" parent="1" source="4Z4Qs0QXwUxuNKvJey66-12" target="4Z4Qs0QXwUxuNKvJey66-17">
          <mxGeometry relative="1" as="geometry" />
        </mxCell>
        <mxCell id="4Z4Qs0QXwUxuNKvJey66-45" value="" style="edgeStyle=orthogonalEdgeStyle;rounded=0;orthogonalLoop=1;jettySize=auto;html=1;" edge="1" parent="1" source="4Z4Qs0QXwUxuNKvJey66-12" target="4Z4Qs0QXwUxuNKvJey66-25">
          <mxGeometry relative="1" as="geometry" />
        </mxCell>
        <mxCell id="4Z4Qs0QXwUxuNKvJey66-12" value="&lt;font style=&quot;font-size: 10px;&quot;&gt;4&lt;/font&gt;" style="ellipse;whiteSpace=wrap;html=1;aspect=fixed;" vertex="1" parent="1">
          <mxGeometry x="415" y="490" width="20" height="20" as="geometry" />
        </mxCell>
        <mxCell id="4Z4Qs0QXwUxuNKvJey66-46" value="" style="edgeStyle=orthogonalEdgeStyle;rounded=0;orthogonalLoop=1;jettySize=auto;html=1;" edge="1" parent="1" source="4Z4Qs0QXwUxuNKvJey66-17" target="4Z4Qs0QXwUxuNKvJey66-18">
          <mxGeometry relative="1" as="geometry" />
        </mxCell>
        <mxCell id="4Z4Qs0QXwUxuNKvJey66-47" value="" style="edgeStyle=orthogonalEdgeStyle;rounded=0;orthogonalLoop=1;jettySize=auto;html=1;" edge="1" parent="1" source="4Z4Qs0QXwUxuNKvJey66-17" target="4Z4Qs0QXwUxuNKvJey66-24">
          <mxGeometry relative="1" as="geometry" />
        </mxCell>
        <mxCell id="4Z4Qs0QXwUxuNKvJey66-17" value="&lt;font style=&quot;font-size: 10px;&quot;&gt;5&lt;/font&gt;" style="ellipse;whiteSpace=wrap;html=1;aspect=fixed;" vertex="1" parent="1">
          <mxGeometry x="415" y="570" width="20" height="20" as="geometry" />
        </mxCell>
        <mxCell id="4Z4Qs0QXwUxuNKvJey66-48" value="" style="edgeStyle=orthogonalEdgeStyle;rounded=0;orthogonalLoop=1;jettySize=auto;html=1;" edge="1" parent="1" source="4Z4Qs0QXwUxuNKvJey66-18" target="4Z4Qs0QXwUxuNKvJey66-21">
          <mxGeometry relative="1" as="geometry" />
        </mxCell>
        <mxCell id="4Z4Qs0QXwUxuNKvJey66-49" value="" style="edgeStyle=orthogonalEdgeStyle;rounded=0;orthogonalLoop=1;jettySize=auto;html=1;" edge="1" parent="1" source="4Z4Qs0QXwUxuNKvJey66-18" target="4Z4Qs0QXwUxuNKvJey66-22">
          <mxGeometry relative="1" as="geometry" />
        </mxCell>
        <mxCell id="4Z4Qs0QXwUxuNKvJey66-18" value="&lt;font style=&quot;font-size: 10px;&quot;&gt;6&lt;/font&gt;" style="ellipse;whiteSpace=wrap;html=1;aspect=fixed;" vertex="1" parent="1">
          <mxGeometry x="415" y="660" width="20" height="20" as="geometry" />
        </mxCell>
        <mxCell id="4Z4Qs0QXwUxuNKvJey66-50" style="edgeStyle=orthogonalEdgeStyle;rounded=0;orthogonalLoop=1;jettySize=auto;html=1;entryX=0;entryY=0.5;entryDx=0;entryDy=0;" edge="1" parent="1" source="4Z4Qs0QXwUxuNKvJey66-19" target="4Z4Qs0QXwUxuNKvJey66-21">
          <mxGeometry relative="1" as="geometry">
            <Array as="points">
              <mxPoint x="290" y="760" />
            </Array>
          </mxGeometry>
        </mxCell>
        <mxCell id="4Z4Qs0QXwUxuNKvJey66-19" value="&lt;font style=&quot;font-size: 10px;&quot;&gt;7&lt;/font&gt;" style="ellipse;whiteSpace=wrap;html=1;aspect=fixed;" vertex="1" parent="1">
          <mxGeometry x="280" y="490" width="20" height="20" as="geometry" />
        </mxCell>
        <mxCell id="4Z4Qs0QXwUxuNKvJey66-51" style="edgeStyle=orthogonalEdgeStyle;rounded=0;orthogonalLoop=1;jettySize=auto;html=1;entryX=0.5;entryY=0;entryDx=0;entryDy=0;" edge="1" parent="1" source="4Z4Qs0QXwUxuNKvJey66-21" target="4Z4Qs0QXwUxuNKvJey66-3">
          <mxGeometry relative="1" as="geometry" />
        </mxCell>
        <mxCell id="4Z4Qs0QXwUxuNKvJey66-21" value="&lt;font style=&quot;font-size: 10px;&quot;&gt;8&lt;/font&gt;" style="ellipse;whiteSpace=wrap;html=1;aspect=fixed;" vertex="1" parent="1">
          <mxGeometry x="415" y="750" width="20" height="20" as="geometry" />
        </mxCell>
        <mxCell id="4Z4Qs0QXwUxuNKvJey66-52" style="edgeStyle=orthogonalEdgeStyle;rounded=0;orthogonalLoop=1;jettySize=auto;html=1;entryX=1;entryY=0.5;entryDx=0;entryDy=0;" edge="1" parent="1" source="4Z4Qs0QXwUxuNKvJey66-22" target="4Z4Qs0QXwUxuNKvJey66-3">
          <mxGeometry relative="1" as="geometry">
            <Array as="points">
              <mxPoint x="535" y="845" />
            </Array>
          </mxGeometry>
        </mxCell>
        <mxCell id="4Z4Qs0QXwUxuNKvJey66-22" value="&lt;font style=&quot;font-size: 10px;&quot;&gt;9&lt;/font&gt;" style="ellipse;whiteSpace=wrap;html=1;aspect=fixed;" vertex="1" parent="1">
          <mxGeometry x="525" y="660" width="20" height="20" as="geometry" />
        </mxCell>
        <mxCell id="4Z4Qs0QXwUxuNKvJey66-56" style="edgeStyle=orthogonalEdgeStyle;rounded=0;orthogonalLoop=1;jettySize=auto;html=1;entryX=0;entryY=0.5;entryDx=0;entryDy=0;" edge="1" parent="1" source="4Z4Qs0QXwUxuNKvJey66-23" target="4Z4Qs0QXwUxuNKvJey66-3">
          <mxGeometry relative="1" as="geometry">
            <Array as="points">
              <mxPoint x="320" y="230" />
              <mxPoint x="250" y="230" />
              <mxPoint x="250" y="845" />
            </Array>
          </mxGeometry>
        </mxCell>
        <mxCell id="4Z4Qs0QXwUxuNKvJey66-23" value="&lt;font style=&quot;font-size: 10px;&quot;&gt;10&lt;/font&gt;" style="ellipse;whiteSpace=wrap;html=1;aspect=fixed;" vertex="1" parent="1">
          <mxGeometry x="310" y="280" width="20" height="20" as="geometry" />
        </mxCell>
        <mxCell id="4Z4Qs0QXwUxuNKvJey66-54" style="edgeStyle=orthogonalEdgeStyle;rounded=0;orthogonalLoop=1;jettySize=auto;html=1;exitX=1;exitY=0.5;exitDx=0;exitDy=0;entryX=1;entryY=0.5;entryDx=0;entryDy=0;" edge="1" parent="1" source="4Z4Qs0QXwUxuNKvJey66-24" target="4Z4Qs0QXwUxuNKvJey66-3">
          <mxGeometry relative="1" as="geometry">
            <mxPoint x="630" y="850" as="targetPoint" />
            <Array as="points">
              <mxPoint x="580" y="580" />
              <mxPoint x="580" y="845" />
            </Array>
          </mxGeometry>
        </mxCell>
        <mxCell id="4Z4Qs0QXwUxuNKvJey66-24" value="&lt;font style=&quot;font-size: 10px;&quot;&gt;11&lt;/font&gt;" style="ellipse;whiteSpace=wrap;html=1;aspect=fixed;" vertex="1" parent="1">
          <mxGeometry x="525" y="570" width="20" height="20" as="geometry" />
        </mxCell>
        <mxCell id="4Z4Qs0QXwUxuNKvJey66-55" style="edgeStyle=orthogonalEdgeStyle;rounded=0;orthogonalLoop=1;jettySize=auto;html=1;exitX=1;exitY=0.5;exitDx=0;exitDy=0;entryX=1;entryY=0.5;entryDx=0;entryDy=0;" edge="1" parent="1" source="4Z4Qs0QXwUxuNKvJey66-25" target="4Z4Qs0QXwUxuNKvJey66-3">
          <mxGeometry relative="1" as="geometry">
            <mxPoint x="650" y="850" as="targetPoint" />
            <Array as="points">
              <mxPoint x="630" y="500" />
              <mxPoint x="630" y="845" />
            </Array>
          </mxGeometry>
        </mxCell>
        <mxCell id="4Z4Qs0QXwUxuNKvJey66-25" value="&lt;font style=&quot;font-size: 10px;&quot;&gt;12&lt;/font&gt;" style="ellipse;whiteSpace=wrap;html=1;aspect=fixed;" vertex="1" parent="1">
          <mxGeometry x="525" y="490" width="20" height="20" as="geometry" />
        </mxCell>
        <mxCell id="4Z4Qs0QXwUxuNKvJey66-57" style="edgeStyle=orthogonalEdgeStyle;rounded=0;orthogonalLoop=1;jettySize=auto;html=1;entryX=1;entryY=0.5;entryDx=0;entryDy=0;" edge="1" parent="1" source="4Z4Qs0QXwUxuNKvJey66-26" target="4Z4Qs0QXwUxuNKvJey66-3">
          <mxGeometry relative="1" as="geometry">
            <mxPoint x="690" y="850" as="targetPoint" />
            <Array as="points">
              <mxPoint x="680" y="220" />
              <mxPoint x="680" y="845" />
            </Array>
          </mxGeometry>
        </mxCell>
        <mxCell id="4Z4Qs0QXwUxuNKvJey66-26" value="&lt;font style=&quot;font-size: 10px;&quot;&gt;13&lt;/font&gt;" style="ellipse;whiteSpace=wrap;html=1;aspect=fixed;" vertex="1" parent="1">
          <mxGeometry x="525" y="210" width="20" height="20" as="geometry" />
        </mxCell>
        <mxCell id="4Z4Qs0QXwUxuNKvJey66-28" style="rounded=0;orthogonalLoop=1;jettySize=auto;html=1;exitX=1;exitY=0.5;exitDx=0;exitDy=0;entryX=-0.003;entryY=0.294;entryDx=0;entryDy=0;entryPerimeter=0;" edge="1" parent="1" source="4Z4Qs0QXwUxuNKvJey66-4" target="4Z4Qs0QXwUxuNKvJey66-26">
          <mxGeometry relative="1" as="geometry">
            <mxPoint x="428.55106781186544" y="177.07106781186542" as="sourcePoint" />
            <mxPoint x="500" y="208.3" as="targetPoint" />
          </mxGeometry>
        </mxCell>
        <mxCell id="4Z4Qs0QXwUxuNKvJey66-30" style="edgeStyle=orthogonalEdgeStyle;rounded=0;orthogonalLoop=1;jettySize=auto;html=1;exitX=0.5;exitY=1;exitDx=0;exitDy=0;entryX=0.5;entryY=0;entryDx=0;entryDy=0;" edge="1" parent="1" source="4Z4Qs0QXwUxuNKvJey66-7" target="4Z4Qs0QXwUxuNKvJey66-8">
          <mxGeometry relative="1" as="geometry" />
        </mxCell>
      </root>
    </mxGraphModel>
  </diagram>
</mxfile>
